<svg xmlns="http://www.w3.org/2000/svg" xml:space="preserve" width="2000" height="169" data-id="lg_iTExAXY9QPvoZIxLdB" data-version="1" viewBox="0 0 2000 169"><g data-padding="20"><g transform="translate(10 3.012)scale(.96435)"><rect width="396.634" height="169.093" x="428.028" y="-399.626" fill="none" rx="0" ry="0" transform="translate(482.19 399.58)"/><path fill="#ffdc00" d="M937.245 43.75q6.02 1.21 9.37 4.52 3.36 3.31 3.36 10.02 0 8.34-5.46 12.55-5.46 4.22-15.01 4.22h-13.24V15.8h11.26q9.81 0 15.05 3.87 5.25 3.87 5.25 11.1 0 5.07-2.8 8.34-2.79 3.27-7.78 4.64m-8.94-21.76h-4.22V41h5.08q5.33 0 7.99-2.45 2.67-2.45 2.67-7.18 0-5.08-2.79-7.23-2.8-2.15-8.73-2.15m1.2 46.79q6.02 0 9.16-2.37 3.14-2.36 3.14-8.12 0-5.94-2.97-8.56t-9.07-2.62h-5.68v21.67Zm64.93 6.28h-8.6l-11.52-25.37q-.61.08-1.81.08h-5.33v25.29h-7.83V15.8h11.87q10.41 0 15.48 4.3t5.07 12.39q0 5.67-2.66 9.76-2.67 4.08-7.66 5.97Zm-22.62-31.31q6.19 0 8.95-2.71 2.75-2.71 2.75-8.55 0-5.42-2.84-7.96t-9.55-2.54h-3.95v21.76Zm30.69-27.95h7.83v59.26h-7.83Zm39.91-.94q4.56 0 8.04 1.59t6.92 4.86l-4.3 4.38q-2.75-2.41-5.11-3.44-2.37-1.03-5.55-1.03-5.94 0-9.68 5.5-3.74 5.51-3.74 18.67 0 9.2 1.42 14.49t4.22 7.52q2.79 2.24 7.09 2.24 4.64 0 8.51-2.58V48.65h-8.08l-.86-6.36h16.51v28.55q-7.57 5.25-16.17 5.25-20.89 0-20.89-30.7 0-10.07 2.92-16.95t7.83-10.23q4.9-3.35 10.92-3.35m61.14 60.2h-7.82V47.19h-19.09v27.87h-7.83V15.8h7.83v24.94h19.09V15.8h7.82Zm7.49-59.26h35.34l-.86 6.54h-13.16v52.72h-7.82V22.34h-13.5Zm42.39 0h27.18l-.86 6.28h-18.49v19.69h16.08v6.28h-16.08v20.73h19.69v6.28h-27.52Zm72.5 59.26h-8.6l-11.52-25.37q-.6.08-1.81.08h-5.33v25.29h-7.83V15.8h11.87q10.41 0 15.48 4.3 5.08 4.3 5.08 12.39 0 5.67-2.67 9.76-2.67 4.08-7.65 5.97Zm-22.62-31.31q6.2 0 8.95-2.71t2.75-8.55q0-5.42-2.84-7.96t-9.54-2.54h-3.96v21.76Zm-275.97 43.97q7.22 0 12.51 2.27 5.29 2.28 8.6 8.78 3.31 6.49 3.31 18.27 0 16.77-6.53 23.35-6.54 6.58-16.6 6.58h-12.38V87.72Zm1.46 6.27h-4.73v46.79h5.08q4.3 0 7.44-1.89 3.13-1.9 5.07-7.1 1.93-5.2 1.93-14.75 0-9.72-2.02-14.75t-5.16-6.66q-3.14-1.64-7.61-1.64m68.03 52.98h-8l-3.53-15.05h-17.71l-3.53 15.05h-7.74l15.4-59.25h9.71Zm-20.38-52.72-7.4 31.39h14.79Zm52.37-6.53h8l-15.65 36.46v22.79h-7.83v-22.7l-15.65-36.55h8.34l11.44 29.58Zm27.61-.95q4.73 0 8.38 1.68 3.66 1.67 6.75 5.11l-4.13 4.48q-2.66-2.58-5.24-3.75-2.58-1.16-5.68-1.16-3.7 0-5.97 2.37-2.28 2.36-2.28 6.23 0 3.79 2.19 6.2 2.19 2.4 8.3 4.73 7.05 2.66 10.66 6.62 3.61 3.95 3.61 11.26 0 4.73-2.19 8.73t-6.23 6.37q-4.05 2.36-9.38 2.36t-9.46-1.98q-4.13-1.97-7.48-5.67l4.21-4.47q3.01 2.75 5.98 4.21t6.58 1.46q4.47 0 7.14-2.92 2.66-2.93 2.66-7.91 0-4.3-2.15-6.88t-7.99-4.73q-7.49-2.84-10.97-6.88-3.48-4.05-3.48-10.15 0-4.22 2.06-7.74 2.07-3.53 5.76-5.55 3.7-2.02 8.35-2.02m78.7 60.2h-8l-3.53-15.05h-17.71l-3.53 15.05h-7.74l15.39-59.25h9.72Zm-20.39-52.72-7.39 31.39h14.79Zm62.34 52.72h-7.82v-27.86h-19.09v27.86h-7.83V87.72h7.83v24.94h19.09V87.72h7.82Zm13.08-59.25h27.17l-.86 6.27h-18.49v19.7h16.08v6.28h-16.08v20.72h19.7v6.28h-27.52Zm72.06 59.25h-7.99l-3.53-15.05h-17.72l-3.52 15.05h-7.74l15.39-59.25h9.72Zm-20.38-52.72-7.39 31.39h14.79Zm38.7-6.53q7.23 0 12.52 2.27 5.28 2.28 8.6 8.78 3.31 6.49 3.31 18.27 0 16.77-6.54 23.35t-16.6 6.58h-12.38V87.72Zm1.46 6.27h-4.73v46.79h5.08q4.3 0 7.44-1.89 3.14-1.9 5.07-7.1 1.94-5.2 1.94-14.75 0-9.72-2.02-14.75-2.03-5.03-5.16-6.66-3.14-1.64-7.62-1.64m-469.33-79.05c-36.576 0-66.33 29.757-66.33 66.33s29.754 66.33 66.33 66.33 66.33-29.756 66.33-66.33-29.754-66.33-66.33-66.33m0 127.18c-33.552 0-60.85-27.297-60.85-60.85s27.298-60.85 60.85-60.85 60.85 27.299 60.85 60.85-27.298 60.85-60.85 60.85"/><path fill="#ffdc00" d="M785.525 99.235a9.25 9.25 0 0 0 4.767 1.31 9.34 9.34 0 0 0 9.33-9.33 9.34 9.34 0 0 0-7.686-9.181 13.25 13.25 0 0 0-12.156-7.993 13.14 13.14 0 0 0-10.68 5.416 10.638 10.638 0 0 0-12.463 10.464c.008 5.862 4.758 10.613 10.622 10.622a10.6 10.6 0 0 0 5.886-1.788c3.724 2.163 8.517 2.344 12.384.478m-14.525-5.796a5.1 5.1 0 0 1-3.744 1.628 5.15 5.15 0 0 1-5.142-5.144 5.148 5.148 0 0 1 7.164-4.733 2.736 2.736 0 0 0 3.531-1.314 7.72 7.72 0 0 1 6.97-4.356 7.77 7.77 0 0 1 7.511 5.817 2.75 2.75 0 0 0 2.808 2.047l.193-.014c2.122 0 3.848 1.726 3.848 3.849s-1.728 3.848-3.848 3.848a3.82 3.82 0 0 1-2.664-1.08 2.736 2.736 0 0 0-3.454-.284c-2.808 1.93-6.799 1.73-9.405-.477a2.74 2.74 0 0 0-3.768.212m52.588 18.509a16.49 16.49 0 0 0-15.304-10.373 16.36 16.36 0 0 0-13.597 7.174 13 13 0 0 0-2.783-.297c-7.2 0-13.055 5.856-13.055 13.054 0 7.2 5.857 13.057 13.055 13.057a12.9 12.9 0 0 0 7.668-2.498c4.835 3.017 11.236 3.274 16.278.659a11.3 11.3 0 0 0 6.188 1.84c6.264 0 11.358-5.097 11.358-11.36a11.376 11.376 0 0 0-9.808-11.256m-1.548 17.136a5.86 5.86 0 0 1-4.077-1.65 2.736 2.736 0 0 0-3.45-.285 10.98 10.98 0 0 1-13.328-.675 2.736 2.736 0 0 0-3.769.212 7.5 7.5 0 0 1-5.513 2.396 7.583 7.583 0 0 1-7.575-7.577 7.583 7.583 0 0 1 10.545-6.968 2.743 2.743 0 0 0 3.535-1.312 10.94 10.94 0 0 1 9.876-6.172 11 11 0 0 1 10.646 8.244 2.71 2.71 0 0 0 2.82 2.045l.288-.02c3.244 0 5.88 2.64 5.88 5.88s-2.636 5.88-5.88 5.88m36.277-38.575a10.44 10.44 0 0 0-9.423-5.953 10.37 10.37 0 0 0-8.15 3.915 8.528 8.528 0 0 0-9.547 8.46 8.53 8.53 0 0 0 8.521 8.516c1.53 0 3.031-.42 4.334-1.192a10.62 10.62 0 0 0 9.022.324 7.578 7.578 0 0 0 11.097-6.7 7.58 7.58 0 0 0-5.854-7.37m-1.715 9.458c-.54 0-1.055-.21-1.449-.585a2.736 2.736 0 0 0-3.45-.286c-1.793 1.233-4.344 1.107-6.01-.304a2.736 2.736 0 0 0-3.765.216 3 3 0 0 1-2.21.96 3.04 3.04 0 0 1-3.042-3.04 3.042 3.042 0 0 1 4.226-2.798 2.74 2.74 0 0 0 3.541-1.31 4.93 4.93 0 0 1 4.451-2.783 4.97 4.97 0 0 1 4.8 3.715c.323 1.238 1.44 2.104 2.74 2.048l.168-.01a2.09 2.09 0 0 1 0 4.177m-37.919-56.716a17.73 17.73 0 0 0 1.217 13.62 17.75 17.75 0 0 0 10.49 8.768 17.8 17.8 0 0 0 5.345.82 17.78 17.78 0 0 0 17.042-12.527 17.75 17.75 0 0 0-1.217-13.62 17.75 17.75 0 0 0-10.492-8.766 17.8 17.8 0 0 0-5.346-.821 17.78 17.78 0 0 0-17.039 12.528m5.23 1.638a12.33 12.33 0 0 1 11.81-8.683c1.252 0 2.5.19 3.707.57a12.3 12.3 0 0 1 7.272 6.077 12.3 12.3 0 0 1 .846 9.44 12.33 12.33 0 0 1-11.815 8.686 12.4 12.4 0 0 1-3.706-.567 12.3 12.3 0 0 1-7.272-6.082 12.3 12.3 0 0 1-.845-9.44m-5.22-10.776a2.739 2.739 0 1 0 4.032-3.709l-3.708-4.036a2.745 2.745 0 0 0-3.87-.163 2.743 2.743 0 0 0-.165 3.87ZM807.97 50.173l5.475.228.12.002a2.74 2.74 0 0 0 .11-5.476l-5.477-.23a2.74 2.74 0 0 0-.228 5.474m9.575 11.423-4.035 3.709a2.74 2.74 0 1 0 3.712 4.031l4.032-3.708a2.742 2.742 0 0 0-3.708-4.032m14.524 9.053-.229 5.475a2.736 2.736 0 0 0 2.623 2.852l.115.004a2.74 2.74 0 0 0 2.736-2.628l.23-5.476a2.74 2.74 0 0 0-2.626-2.85 2.747 2.747 0 0 0-2.85 2.624m16.831-7.744a2.736 2.736 0 0 0-.162 3.872l3.712 4.033a2.7 2.7 0 0 0 2.016.886 2.738 2.738 0 0 0 2.016-4.595l-3.71-4.036a2.74 2.74 0 0 0-3.872-.16"/></g><path fill="transparent" stroke="transparent" d="M719.5 0h561v169h-561z"/></g></svg>